<?xml version="1.0" encoding="UTF-8" standalone="no"?>
<!DOCTYPE svg PUBLIC "-//W3C//DTD SVG 1.1//EN"
 "http://www.w3.org/Graphics/SVG/1.1/DTD/svg11.dtd">
<!-- Generated by graphviz version 13.1.2 (20250808.2320)
 -->
<!-- Title: /home/bkoz/src/alpha60&#45;swarm&#45;media&#45;probe/src/torrent_parser.hpp Pages: 1 -->
<svg width="996pt" height="120pt"
 viewBox="0.00 0.00 996.00 120.00" xmlns="http://www.w3.org/2000/svg" xmlns:xlink="http://www.w3.org/1999/xlink">
<g id="graph0" class="graph" transform="scale(1 1) rotate(0) translate(4 116)">
<title>/home/bkoz/src/alpha60&#45;swarm&#45;media&#45;probe/src/torrent_parser.hpp</title>
<!-- Node1 -->
<g id="Node000001" class="node">
<title>Node1</title>
<g id="a_Node000001"><a xlink:title=" ">
<polygon fill="#999999" stroke="#666666" points="446.75,-112 337.75,-112 337.75,-68 446.75,-68 446.75,-112"/>
<text xml:space="preserve" text-anchor="start" x="345.75" y="-100.4" font-family="SourceSans" font-size="8.00">/home/bkoz/src/alpha60</text>
<text xml:space="preserve" text-anchor="start" x="345.75" y="-88.4" font-family="SourceSans" font-size="8.00">&#45;swarm&#45;media&#45;probe/src</text>
<text xml:space="preserve" text-anchor="middle" x="392.25" y="-76.4" font-family="SourceSans" font-size="8.00">/torrent_parser.hpp</text>
</a>
</g>
</g>
<!-- Node2 -->
<g id="Node000002" class="node">
<title>Node2</title>
<g id="a_Node000002"><a xlink:title=" ">
<polygon fill="#e0e0e0" stroke="#999999" points="38.5,-26 0,-26 0,-6 38.5,-6 38.5,-26"/>
<text xml:space="preserve" text-anchor="middle" x="19.25" y="-14.4" font-family="SourceSans" font-size="8.00">string</text>
</a>
</g>
</g>
<!-- Node1&#45;&gt;Node2 -->
<g id="edge1_Node000001_Node000002" class="edge">
<title>Node1&#45;&gt;Node2</title>
<g id="a_edge1_Node000001_Node000002"><a xlink:title=" ">
<path fill="none" stroke="#63b8ff" d="M337.36,-85.22C268.38,-79.28 147.06,-64.83 48.25,-32 47.44,-31.73 46.63,-31.44 45.82,-31.14"/>
<polygon fill="#63b8ff" stroke="#63b8ff" points="47.36,-28 36.8,-27.11 44.51,-34.39 47.36,-28"/>
</a>
</g>
</g>
<!-- Node3 -->
<g id="Node000003" class="node">
<title>Node3</title>
<g id="a_Node000003"><a xlink:title=" ">
<polygon fill="#e0e0e0" stroke="#999999" points="95.5,-26 57,-26 57,-6 95.5,-6 95.5,-26"/>
<text xml:space="preserve" text-anchor="middle" x="76.25" y="-14.4" font-family="SourceSans" font-size="8.00">vector</text>
</a>
</g>
</g>
<!-- Node1&#45;&gt;Node3 -->
<g id="edge2_Node000001_Node000003" class="edge">
<title>Node1&#45;&gt;Node3</title>
<g id="a_edge2_Node000001_Node000003"><a xlink:title=" ">
<path fill="none" stroke="#63b8ff" d="M337.35,-83.05C278.43,-75.54 182.71,-60.07 104.25,-32 103.6,-31.77 102.95,-31.52 102.29,-31.27"/>
<polygon fill="#63b8ff" stroke="#63b8ff" points="103.78,-28.1 93.24,-27.05 100.83,-34.44 103.78,-28.1"/>
</a>
</g>
</g>
<!-- Node4 -->
<g id="Node000004" class="node">
<title>Node4</title>
<g id="a_Node000004"><a xlink:title=" ">
<polygon fill="#e0e0e0" stroke="#999999" points="161,-26 113.5,-26 113.5,-6 161,-6 161,-26"/>
<text xml:space="preserve" text-anchor="middle" x="137.25" y="-14.4" font-family="SourceSans" font-size="8.00">optional</text>
</a>
</g>
</g>
<!-- Node1&#45;&gt;Node4 -->
<g id="edge3_Node000001_Node000004" class="edge">
<title>Node1&#45;&gt;Node4</title>
<g id="a_edge3_Node000001_Node000004"><a xlink:title=" ">
<path fill="none" stroke="#63b8ff" d="M337.63,-77.78C292.2,-67.79 226.17,-51.72 170.25,-32 169.12,-31.6 167.98,-31.18 166.83,-30.74"/>
<polygon fill="#63b8ff" stroke="#63b8ff" points="168.54,-27.66 157.96,-27.04 165.84,-34.12 168.54,-27.66"/>
</a>
</g>
</g>
<!-- Node5 -->
<g id="Node000005" class="node">
<title>Node5</title>
<g id="a_Node000005"><a xlink:title=" ">
<polygon fill="#e0e0e0" stroke="#999999" points="233,-26 179.5,-26 179.5,-6 233,-6 233,-26"/>
<text xml:space="preserve" text-anchor="middle" x="206.25" y="-14.4" font-family="SourceSans" font-size="8.00">filesystem</text>
</a>
</g>
</g>
<!-- Node1&#45;&gt;Node5 -->
<g id="edge4_Node000001_Node000005" class="edge">
<title>Node1&#45;&gt;Node5</title>
<g id="a_edge4_Node000001_Node000005"><a xlink:title=" ">
<path fill="none" stroke="#63b8ff" d="M337.51,-69C308.74,-58.32 272.96,-44.77 241.25,-32 240.15,-31.56 239.02,-31.1 237.89,-30.64"/>
<polygon fill="#63b8ff" stroke="#63b8ff" points="239.63,-27.57 229.06,-26.94 236.93,-34.03 239.63,-27.57"/>
</a>
</g>
</g>
<!-- Node6 -->
<g id="Node000006" class="node">
<title>Node6</title>
<g id="a_Node000006"><a xlink:title=" ">
<polygon fill="#e0e0e0" stroke="#999999" points="319.88,-26 250.62,-26 250.62,-6 319.88,-6 319.88,-26"/>
<text xml:space="preserve" text-anchor="middle" x="285.25" y="-14.4" font-family="SourceSans" font-size="8.00">openssl/sha.h</text>
</a>
</g>
</g>
<!-- Node1&#45;&gt;Node6 -->
<g id="edge5_Node000001_Node000006" class="edge">
<title>Node1&#45;&gt;Node6</title>
<g id="a_edge5_Node000001_Node000006"><a xlink:title=" ">
<path fill="none" stroke="#63b8ff" d="M360.44,-67.59C343.76,-56.37 323.7,-42.87 308.5,-32.64"/>
<polygon fill="#63b8ff" stroke="#63b8ff" points="310.8,-29.97 300.55,-27.29 306.89,-35.78 310.8,-29.97"/>
</a>
</g>
</g>
<!-- Node7 -->
<g id="Node000007" class="node">
<title>Node7</title>
<g id="a_Node000007"><a xlink:title=" ">
<polygon fill="#e0e0e0" stroke="#999999" points="382.88,-26 337.62,-26 337.62,-6 382.88,-6 382.88,-26"/>
<text xml:space="preserve" text-anchor="middle" x="360.25" y="-14.4" font-family="SourceSans" font-size="8.00">fstream</text>
</a>
</g>
</g>
<!-- Node1&#45;&gt;Node7 -->
<g id="edge6_Node000001_Node000007" class="edge">
<title>Node1&#45;&gt;Node7</title>
<g id="a_edge6_Node000001_Node000007"><a xlink:title=" ">
<path fill="none" stroke="#63b8ff" d="M382.82,-67.79C378.47,-58 373.33,-46.44 369.06,-36.83"/>
<polygon fill="#63b8ff" stroke="#63b8ff" points="372.26,-35.41 365,-27.69 365.87,-38.25 372.26,-35.41"/>
</a>
</g>
</g>
<!-- Node8 -->
<g id="Node000008" class="node">
<title>Node8</title>
<g id="a_Node000008"><a xlink:title=" ">
<polygon fill="#e0e0e0" stroke="#999999" points="448,-26 400.5,-26 400.5,-6 448,-6 448,-26"/>
<text xml:space="preserve" text-anchor="middle" x="424.25" y="-14.4" font-family="SourceSans" font-size="8.00">iomanip</text>
</a>
</g>
</g>
<!-- Node1&#45;&gt;Node8 -->
<g id="edge7_Node000001_Node000008" class="edge">
<title>Node1&#45;&gt;Node8</title>
<g id="a_edge7_Node000001_Node000008"><a xlink:title=" ">
<path fill="none" stroke="#63b8ff" d="M401.68,-67.79C406.03,-58 411.17,-46.44 415.44,-36.83"/>
<polygon fill="#63b8ff" stroke="#63b8ff" points="418.63,-38.25 419.5,-27.69 412.24,-35.41 418.63,-38.25"/>
</a>
</g>
</g>
<!-- Node9 -->
<g id="Node000009" class="node">
<title>Node9</title>
<g id="a_Node000009"><a xlink:title=" ">
<polygon fill="#e0e0e0" stroke="#999999" points="512.25,-26 466.25,-26 466.25,-6 512.25,-6 512.25,-26"/>
<text xml:space="preserve" text-anchor="middle" x="489.25" y="-14.4" font-family="SourceSans" font-size="8.00">sstream</text>
</a>
</g>
</g>
<!-- Node1&#45;&gt;Node9 -->
<g id="edge8_Node000001_Node000009" class="edge">
<title>Node1&#45;&gt;Node9</title>
<g id="a_edge8_Node000001_Node000009"><a xlink:title=" ">
<path fill="none" stroke="#63b8ff" d="M421.09,-67.59C435.92,-56.59 453.7,-43.39 467.38,-33.23"/>
<polygon fill="#63b8ff" stroke="#63b8ff" points="469.36,-36.12 475.31,-27.35 465.19,-30.5 469.36,-36.12"/>
</a>
</g>
</g>
<!-- Node10 -->
<g id="Node000010" class="node">
<title>Node10</title>
<g id="a_Node000010"><a xlink:title=" ">
<polygon fill="#e0e0e0" stroke="#999999" points="611.88,-32 530.62,-32 530.62,0 611.88,0 611.88,-32"/>
<text xml:space="preserve" text-anchor="start" x="538.62" y="-20.4" font-family="SourceSans" font-size="8.00">libtorrent/torrent</text>
<text xml:space="preserve" text-anchor="middle" x="571.25" y="-8.4" font-family="SourceSans" font-size="8.00">_info.hpp</text>
</a>
</g>
</g>
<!-- Node1&#45;&gt;Node10 -->
<g id="edge9_Node000001_Node000010" class="edge">
<title>Node1&#45;&gt;Node10</title>
<g id="a_edge9_Node000001_Node000010"><a xlink:title=" ">
<path fill="none" stroke="#63b8ff" d="M445.47,-67.59C469.78,-57.81 498.39,-46.31 522.17,-36.74"/>
<polygon fill="#63b8ff" stroke="#63b8ff" points="523.35,-40.04 531.32,-33.06 520.74,-33.55 523.35,-40.04"/>
</a>
</g>
</g>
<!-- Node11 -->
<g id="Node000011" class="node">
<title>Node11</title>
<g id="a_Node000011"><a xlink:title=" ">
<polygon fill="#e0e0e0" stroke="#999999" points="740.5,-26 630,-26 630,-6 740.5,-6 740.5,-26"/>
<text xml:space="preserve" text-anchor="middle" x="685.25" y="-14.4" font-family="SourceSans" font-size="8.00">libtorrent/info_hash.hpp</text>
</a>
</g>
</g>
<!-- Node1&#45;&gt;Node11 -->
<g id="edge10_Node000001_Node000011" class="edge">
<title>Node1&#45;&gt;Node11</title>
<g id="a_edge10_Node000001_Node000011"><a xlink:title=" ">
<path fill="none" stroke="#63b8ff" d="M447.02,-75.54C501.18,-62.23 583.34,-42.04 635.63,-29.19"/>
<polygon fill="#63b8ff" stroke="#63b8ff" points="636.3,-32.63 645.17,-26.85 634.62,-25.84 636.3,-32.63"/>
</a>
</g>
</g>
<!-- Node12 -->
<g id="Node000012" class="node">
<title>Node12</title>
<g id="a_Node000012"><a xlink:title=" ">
<polygon fill="#e0e0e0" stroke="#999999" points="864.25,-26 758.25,-26 758.25,-6 864.25,-6 864.25,-26"/>
<text xml:space="preserve" text-anchor="middle" x="811.25" y="-14.4" font-family="SourceSans" font-size="8.00">libtorrent/bdecode.hpp</text>
</a>
</g>
</g>
<!-- Node1&#45;&gt;Node12 -->
<g id="edge11_Node000001_Node000012" class="edge">
<title>Node1&#45;&gt;Node12</title>
<g id="a_edge11_Node000001_Node000012"><a xlink:title=" ">
<path fill="none" stroke="#63b8ff" d="M447.23,-81.6C517.54,-71.82 642.94,-53.31 749.25,-32 753.83,-31.08 758.59,-30.06 763.33,-28.99"/>
<polygon fill="#63b8ff" stroke="#63b8ff" points="763.88,-32.46 772.84,-26.79 762.3,-25.64 763.88,-32.46"/>
</a>
</g>
</g>
<!-- Node13 -->
<g id="Node000013" class="node">
<title>Node13</title>
<g id="a_Node000013"><a xlink:title=" ">
<polygon fill="#e0e0e0" stroke="#999999" points="988.25,-26 882.25,-26 882.25,-6 988.25,-6 988.25,-26"/>
<text xml:space="preserve" text-anchor="middle" x="935.25" y="-14.4" font-family="SourceSans" font-size="8.00">libtorrent/bencode.hpp</text>
</a>
</g>
</g>
<!-- Node1&#45;&gt;Node13 -->
<g id="edge12_Node000001_Node000013" class="edge">
<title>Node1&#45;&gt;Node13</title>
<g id="a_edge12_Node000001_Node000013"><a xlink:title=" ">
<path fill="none" stroke="#63b8ff" d="M447.03,-84.65C536.63,-77.07 719.92,-59.53 873.25,-32 878.17,-31.12 883.27,-30.08 888.35,-28.97"/>
<polygon fill="#63b8ff" stroke="#63b8ff" points="888.9,-32.44 897.87,-26.79 887.34,-25.61 888.9,-32.44"/>
</a>
</g>
</g>
</g>
</svg>
